<svg xmlns="http://www.w3.org/2000/svg" viewBox="0 0 128 128"><rect fill="#4684ee" stroke="#fff" width="100%" height="100%"/><path fill="#fff" d="M47.52 62.42q0 7.12-3.96 10.79-3.95 3.67-11.47 4.15l-.35 10.81h-6.55l-.57-16.83h5.14q2.68 0 4.49-.57 1.8-.57 2.9-1.63 1.1-1.05 1.58-2.57.48-1.52.48-3.41 0-3.2-1.32-5.71-1.31-2.5-3.69-4.22-2.37-1.71-5.64-2.59-3.28-.88-7.15-.88h-1.09v-6.85h1.18q4.44 0 8.11.83 3.67.84 6.55 2.26 2.88 1.43 5.01 3.37 2.13 1.93 3.56 4.08 1.43 2.16 2.11 4.46.68 2.31.68 4.51M28.4 94.19q1.23 0 2.29.46 1.05.46 1.82 1.25t1.21 1.87q.44 1.08.44 2.26 0 1.19-.44 2.25-.44 1.05-1.21 1.82t-1.82 1.23q-1.06.46-2.29.46-1.19 0-2.24-.46-1.05-.46-1.85-1.23-.79-.77-1.23-1.82-.44-1.06-.44-2.25 0-1.18.44-2.26.44-1.08 1.23-1.87.8-.79 1.85-1.25 1.05-.46 2.24-.46zm52.47-3.03q1.5 0 2.84.57 1.34.57 2.33 1.58.98 1.01 1.56 2.35.57 1.34.57 2.88 0 1.49-.57 2.81-.58 1.32-1.56 2.31-.99.99-2.33 1.56-1.34.57-2.84.57-1.54 0-2.85-.57-1.32-.57-2.31-1.56-.99-.99-1.56-2.31-.57-1.32-.57-2.81 0-1.54.57-2.88.57-1.34 1.56-2.35.99-1.01 2.31-1.58 1.31-.57 2.85-.57z"/></svg>